# xmcd CD database file
#
# Track frame offsets:
#	150
#	50160
#	99820
#	147227
#
# Disc length: 2395 seconds
#
# Revision: 0
# Processed by: cddbd v1.5.1PL0 Copyright (c) Steve Scherf et al.
# Submitted via: CDex 1.51
#
DISCID=30095904
DTITLE=Raven - Visions Within
DYEAR=1900
DGENRE=New Age
TTITLE0=Visions Within
TTITLE1=Wings on Fire - Dele Yaman
TTITLE2=Blue Azure
TTITLE3=Ashes to Dust
EXTD=
EXTT0=
EXTT1=
EXTT2=
EXTT3=
PLAYORDER=
